<?xml version="1.0" encoding="utf-8"?>
<!-- Generator: Adobe Illustrator 26.0.2, SVG Export Plug-In . SVG Version: 6.00 Build 0)  -->
<svg version="1.1" id="Camada_1" xmlns="http://www.w3.org/2000/svg" xmlns:xlink="http://www.w3.org/1999/xlink" x="0px" y="0px"
	 viewBox="0 0 429.7 294.8" style="enable-background:new 0 0 429.7 294.8;" xml:space="preserve">
<style type="text/css">
	.st0{fill-rule:evenodd;clip-rule:evenodd;fill:#BCBEC0;}
	.st1{fill:#F58220;}
	.st2{fill-rule:evenodd;clip-rule:evenodd;fill:#F58220;}
	.st3{clip-path:url(#SVGID_00000040540852670078121450000001220498415380124350_);}
	.st4{clip-path:url(#SVGID_00000163777480902210747200000012284871051664555163_);}
	.st5{fill:#2E3192;}
</style>
<polygon class="st0" points="281.6,6.9 327.3,79.2 272.1,81.2 255.9,51.5 "/>
<path class="st1" d="M157.7,191.1c0,1,0,1.9-0.1,2.8c-0.2,1.4-0.5,2.7-0.9,4c-0.5,1.8-1.6,3.4-3,4.5c-1.8,1.3-4,2-6.2,1.8h-12.9
	v-43.2h11.9c1.7,0,3.4,0.2,5,0.6c1.3,0.4,2.5,1.2,3.2,2.4c0.8,1.1,1.4,2.3,1.7,3.7c0.3,1.4,0.4,2.9,0.4,4.4c0,1.9-0.3,3.9-1,5.6
	c-0.7,1.6-2.1,2.8-3.8,3.4c1.9,0.3,3.5,1.4,4.4,3.1C157.4,186.3,157.8,188.7,157.7,191.1z M149.3,172.2c0.1-1.3-0.2-2.6-0.8-3.8
	c-0.6-0.8-1.6-1.1-3.2-1.1h-3.4v11.1h2.1c0.9,0,1.8-0.1,2.7-0.3c0.7-0.1,1.3-0.5,1.7-1.1c0.4-0.6,0.6-1.3,0.7-2
	C149.3,174.1,149.3,173.2,149.3,172.2z M150.2,191.4c0-2.5-0.3-4.2-1-5.2c-0.7-1-2.1-1.4-4.4-1.4H142v13.1h3.3c0.6,0,1.1,0,1.4,0
	c0.6-0.1,1.1-0.3,1.6-0.6c0.8-0.5,1.3-1.2,1.5-2.1C150.1,193.9,150.2,192.7,150.2,191.4z"/>
<path class="st1" d="M190.1,204.2h-7c-1,0-1.6-0.9-1.8-2.7s-0.3-3.3-0.3-4.6c0-0.6,0-1.4,0.1-2.5s0.1-1.6,0.1-1.6
	c0.1-1.8-0.3-3.5-1.3-5c-0.8-1.2-2.5-1.8-5.1-1.8h-3.7v18.1h-7.4v-43.1h14.1c3.8,0,6.6,1.1,8.4,3.3c1.9,2.2,2.9,5,2.8,7.9
	c0,2.3-0.6,4.6-1.7,6.6c-0.8,1.7-2.4,3-4.2,3.4c2.2,0.5,3.7,1.4,4.4,2.7c0.7,1.6,1.1,3.3,1,5.1v2.2c0,3.1,0.1,5.6,0.3,7.6
	c0.2,1.9,0.7,2.9,1.4,2.9L190.1,204.2z M176.5,167.5h-5.4v12.2h4.9c1.6,0,3-0.7,3.9-2c1-1.3,1.5-2.9,1.4-4.5c0-1.4-0.4-2.8-1.3-4
	C179.2,168.1,177.9,167.4,176.5,167.5z"/>
<path class="st1" d="M221,204.2h-7.8l-2.1-11.4h-8.2l-2.4,11.4h-7.9l9.9-43.1h9.9L221,204.2z M210.3,186.5l-3.3-20l-3.3,20H210.3z"
	/>
<path class="st1" d="M246.3,204.2h-22.8v-6.3l14.5-30.4h-13.6v-6.3h21.5v6.3l-14.5,30.4h14.9V204.2z"/>
<path class="st1" d="M260.5,204.1v-43.3h6v43.3H260.5z"/>
<path class="st1" d="M272.1,204.1v-43.3h9l5.4,29.5l5.4-29.5h9.1v43.3h-5.5V170l-6,34.1h-5.8l-5.9-34.1v34.1H272.1z"/>
<path class="st1" d="M305.8,182.7c-0.1-3.7,0.4-7.5,1.4-11.1c0.6-2.1,1.6-4.1,2.8-5.9c1-1.6,2.3-2.9,3.9-3.9
	c1.9-1.2,4.2-1.8,6.4-1.7c4.4,0,7.9,2,10.6,5.9c2.6,4,4,9.5,4,16.5c0,7-1.3,12.5-3.9,16.4c-2.6,3.9-6.1,5.9-10.5,5.9
	c-4.3,0.1-8.4-2.2-10.6-5.9C307.1,195,305.8,189.6,305.8,182.7z M312,182.4c0,4.9,0.8,8.6,2.4,11.2c1.6,2.5,3.5,3.8,6,3.8
	s4.4-1.2,5.9-3.8s2.3-6.3,2.3-11.3s-0.8-8.7-2.3-11.1c-1.2-2.2-3.5-3.7-6-3.7c-2.5,0-4.5,1.2-6,3.7S312,177.5,312,182.4z
	 M316.6,158.3l2.9-8.8h6.4l-5.6,8.8L316.6,158.3z"/>
<path class="st1" d="M347.2,204.1l-10.7-43.3h6.5l7.6,32.1l7.3-32.1h6.4l-10.7,43.3H347.2z"/>
<path class="st1" d="M367.5,204.1v-43.3h22.2v7.3h-16.2v9.6h15v7.3h-15v11.8h16.7v7.3H367.5z"/>
<path class="st1" d="M395.1,204.1v-43.3h6v43.3H395.1z"/>
<path class="st1" d="M405.4,190l5.9-0.8c0.1,2.3,0.9,4.4,2.1,6.3c2.2,2.5,6,2.7,8.5,0.5c0.1-0.1,0.2-0.2,0.3-0.3
	c1-1.2,1.5-2.7,1.5-4.2c0.1-1.9-1-3.7-2.8-4.5c-0.7-0.4-2.3-1-4.8-1.9c-3.2-1.2-5.5-2.6-6.8-4.3c-1.9-2.5-2.9-5.6-2.8-8.7
	c0-2.1,0.4-4.2,1.3-6.2c0.8-1.8,2.1-3.3,3.7-4.4c1.8-1,3.8-1.6,5.9-1.5c3.8,0,6.6,1.2,8.5,3.6c1.9,2.4,2.9,5.6,3,9.5l-6,0.4
	c-0.1-1.7-0.7-3.4-1.7-4.8c-1-1-2.4-1.6-3.8-1.5c-1.5-0.1-3,0.5-4.1,1.6c-0.7,0.7-1,1.7-1,2.7c0,1,0.3,1.9,0.9,2.6
	c0.8,0.9,2.6,1.9,5.5,2.9c2.3,0.7,4.5,1.7,6.5,3.1c1.5,1.2,2.6,2.7,3.3,4.4c0.9,2.2,1.3,4.5,1.2,6.9c0,2.4-0.5,4.8-1.4,7
	c-0.8,2-2.2,3.7-4,4.8c-2,1.1-4.2,1.7-6.5,1.6c-3.8,0-6.7-1.3-8.7-3.8C407,198.6,405.8,194.9,405.4,190z"/>
<polygon class="st2" points="227.8,6.9 281.6,6.9 206.2,138.4 152.4,138.4 "/>
<g>
	<defs>
		<rect id="SVGID_1_" x="135.4" y="214.1" width="289.6" height="4.4"/>
	</defs>
	<clipPath id="SVGID_00000162331794638811045260000017407399579771413946_">
		<use xlink:href="#SVGID_1_"  style="overflow:visible;"/>
	</clipPath>
	<g style="clip-path:url(#SVGID_00000162331794638811045260000017407399579771413946_);">
		<g>
			<defs>
				<rect id="SVGID_00000099645210640515480160000004826751345421841804_" x="135.4" y="214.1" width="289.6" height="4.4"/>
			</defs>
			<clipPath id="SVGID_00000051362829733252565520000012410939300070616712_">
				<use xlink:href="#SVGID_00000099645210640515480160000004826751345421841804_"  style="overflow:visible;"/>
			</clipPath>
			<g style="clip-path:url(#SVGID_00000051362829733252565520000012410939300070616712_);">
				
					<image style="overflow:visible;enable-background:new    ;" width="1208" height="20" xlink:href="9EFA91F1.png"  transform="matrix(0.24 0 0 0.24 135.2 213.84)">
				</image>
			</g>
		</g>
	</g>
</g>
<path class="st5" d="M111.5,288.3c0,0.7-0.2,1.4-0.6,2c-0.5,0.8-1.1,1.5-1.8,2.1c-0.9,0.8-1.9,1.3-3.1,1.7c-1.4,0.5-2.9,0.7-4.4,0.6
	c-1.1,0-2.3-0.1-3.4-0.3c-1-0.2-1.9-0.5-2.8-0.9c-0.8-0.4-1.6-1-2.3-1.6c-0.6-0.6-1.2-1.3-1.6-2c-0.4-0.8-0.8-1.6-1-2.4
	c-0.2-0.9-0.3-1.8-0.3-2.7c0-1.4,0.3-2.9,0.8-4.2c0.6-1.2,1.4-2.3,2.4-3.2c1.1-0.9,2.3-1.6,3.7-2c1.4-0.5,3-0.7,4.5-0.7
	c1.8,0,3.5,0.3,5.1,0.9c1.3,0.5,2.5,1.3,3.5,2.3c0.7,0.7,1.1,1.6,1.2,2.6c0,0.5-0.2,0.9-0.6,1.2c-0.4,0.3-0.9,0.5-1.4,0.5
	c-0.5,0-1-0.1-1.4-0.4c-0.4-0.4-0.7-0.8-1-1.2c-2.1-3-6.3-3.8-9.3-1.7c-0.3,0.2-0.6,0.4-0.8,0.7c-1.3,1.4-1.9,3.3-1.8,5.2
	c0,1.3,0.2,2.6,0.8,3.8c0.5,1,1.3,1.8,2.2,2.2c1,0.5,2.2,0.8,3.4,0.7c1.2,0,2.4-0.3,3.5-0.8c1-0.6,1.7-1.4,2.2-2.5
	c0.2-0.5,0.4-0.9,0.8-1.2c0.4-0.4,0.9-0.5,1.5-0.5c0.5,0,1.1,0.2,1.5,0.5C111.2,287.4,111.5,287.9,111.5,288.3z"/>
<path class="st5" d="M122.3,286.2h-1.7v6.2c0.1,0.7-0.2,1.3-0.7,1.8c-1,0.8-2.5,0.8-3.5,0c-0.5-0.5-0.7-1.1-0.6-1.8v-14.9
	c-0.1-0.7,0.2-1.4,0.7-1.8c0.7-0.4,1.5-0.6,2.3-0.6h7.9c1.1,0,2,0,2.8,0.1c0.7,0.1,1.4,0.2,2.1,0.5c0.7,0.2,1.4,0.6,2,1.1
	c0.6,0.4,1,1,1.3,1.7c0.3,0.6,0.5,1.3,0.4,2c0.1,1.3-0.5,2.6-1.5,3.5c-1.3,1-2.9,1.6-4.6,1.8c0.9,0.4,1.7,1,2.4,1.6
	c0.8,0.7,1.5,1.5,2.1,2.3c0.5,0.7,1,1.4,1.4,2.2c0.3,0.4,0.4,0.9,0.5,1.4c0,0.3-0.1,0.5-0.3,0.8c-0.2,0.3-0.5,0.5-0.8,0.6
	c-0.4,0.1-0.8,0.2-1.2,0.2c-0.5,0-0.9-0.1-1.4-0.3c-0.4-0.2-0.7-0.5-1-0.8c-0.3-0.3-0.6-0.8-1.1-1.4l-1.9-2.6
	c-0.6-0.8-1.2-1.5-1.9-2.2c-0.5-0.4-1-0.8-1.7-1C123.7,286.3,123,286.2,122.3,286.2z M125,278h-4.4v5.3h4.3c1,0,2-0.1,2.9-0.2
	c0.7-0.1,1.3-0.4,1.8-0.8c0.4-0.4,0.7-1,0.6-1.6c0-0.5-0.2-1-0.5-1.4c-0.4-0.4-0.8-0.8-1.4-0.9C127.3,278.1,126.2,278,125,278
	L125,278z"/>
<path class="st5" d="M155.4,278.1h-10.8v4.8h10c0.6,0,1.2,0.1,1.6,0.4c0.3,0.2,0.5,0.6,0.5,1.1c0,0.4-0.2,0.8-0.5,1.1
	c-0.5,0.3-1.1,0.5-1.6,0.4h-10v5.5h11.2c0.6,0,1.2,0.1,1.7,0.4c0.4,0.3,0.6,0.7,0.6,1.1c0,0.4-0.2,0.9-0.6,1.1
	c-0.5,0.3-1.1,0.5-1.7,0.4h-13.1c-0.8,0.1-1.6-0.1-2.3-0.6c-0.5-0.5-0.8-1.2-0.7-1.8v-14.6c0-0.5,0.1-1,0.3-1.4
	c0.2-0.4,0.6-0.7,1-0.8c0.5-0.2,1.1-0.3,1.7-0.2h12.7c0.6,0,1.2,0.1,1.7,0.4c0.6,0.4,0.7,1.3,0.3,1.9c-0.1,0.1-0.2,0.2-0.3,0.3
	C156.7,278,156,278.2,155.4,278.1z"/>
<path class="st5" d="M182.2,288.3c0,0.7-0.2,1.4-0.6,2c-0.4,0.8-1.1,1.5-1.8,2.1c-0.9,0.8-1.9,1.3-3.1,1.7c-1.4,0.5-2.9,0.7-4.4,0.6
	c-1.1,0-2.3-0.1-3.4-0.3c-1-0.2-1.9-0.5-2.8-0.9c-0.8-0.4-1.6-1-2.3-1.6c-0.6-0.6-1.2-1.3-1.6-2c-0.4-0.8-0.8-1.6-1-2.4
	c-0.2-0.9-0.3-1.8-0.3-2.7c0-1.4,0.3-2.9,0.8-4.2c0.6-1.2,1.4-2.3,2.4-3.2c1.1-0.9,2.3-1.6,3.7-2c1.4-0.5,3-0.7,4.5-0.7
	c1.8,0,3.5,0.3,5.1,0.9c1.3,0.5,2.5,1.3,3.5,2.3c0.7,0.7,1.1,1.6,1.2,2.6c0,0.5-0.2,0.9-0.6,1.2c-0.4,0.3-0.9,0.5-1.4,0.5
	c-0.5,0-1-0.1-1.4-0.4c-0.4-0.4-0.7-0.8-1-1.2c-2.1-3-6.3-3.8-9.3-1.7c-0.3,0.2-0.6,0.4-0.8,0.7c-1.2,1.4-1.9,3.3-1.8,5.2
	c0,1.3,0.2,2.6,0.8,3.8c0.5,1,1.3,1.8,2.2,2.2c1,0.5,2.2,0.8,3.4,0.7c1.2,0,2.4-0.3,3.5-0.8c1-0.6,1.7-1.4,2.2-2.5
	c0.2-0.5,0.4-0.9,0.8-1.2c0.4-0.4,0.9-0.5,1.5-0.5c0.5,0,1.1,0.2,1.5,0.5C182,287.4,182.2,287.9,182.2,288.3z"/>
<path class="st5" d="M186.8,292.4v-15.3c-0.1-0.7,0.2-1.3,0.7-1.8c0.5-0.4,1.1-0.6,1.7-0.6c0.6,0,1.3,0.2,1.8,0.6
	c0.5,0.5,0.7,1.1,0.7,1.8v15.3c0,0.7-0.2,1.3-0.7,1.8c-0.5,0.4-1.1,0.6-1.8,0.6c-0.6,0-1.2-0.2-1.7-0.6
	C187,293.7,186.7,293.1,186.8,292.4z"/>
<path class="st5" d="M218.1,278.3h-7.7l-0.9,4.3c1.3-0.6,2.8-1,4.3-1c1,0,2,0.2,2.9,0.5c0.9,0.3,1.7,0.7,2.4,1.3
	c0.7,0.5,1.2,1.2,1.6,2c0.4,0.8,0.6,1.6,0.6,2.5c0,1.2-0.4,2.5-1.1,3.5c-0.8,1.1-1.8,2-3,2.5c-1.4,0.6-3,1-4.6,0.9
	c-1.6,0.1-3.2-0.2-4.7-0.9c-1-0.4-1.9-1.1-2.6-2c-0.4-0.6-0.7-1.3-0.8-2c0-0.4,0.2-0.8,0.5-1c0.4-0.3,0.8-0.5,1.3-0.5
	c0.9,0,1.7,0.5,2,1.3c0.4,0.8,1,1.4,1.8,1.8c0.7,0.4,1.6,0.7,2.5,0.7c0.8,0,1.5-0.2,2.2-0.5c0.6-0.3,1.1-0.8,1.5-1.5
	c0.3-0.6,0.5-1.4,0.5-2.1c0-0.8-0.2-1.5-0.5-2.2c-0.4-0.6-0.9-1.1-1.5-1.4c-0.6-0.3-1.4-0.4-2.1-0.4c-0.7,0-1.4,0.1-2,0.3
	c-0.6,0.3-1.2,0.6-1.7,1c-0.5,0.4-1.2,0.6-1.9,0.7c-0.5,0-1-0.2-1.4-0.5c-0.4-0.2-0.6-0.6-0.6-1.1c0,0,0.1-0.3,0.2-0.9l1.4-6.3
	c0.1-0.6,0.4-1.2,0.9-1.6c0.6-0.4,1.3-0.6,2-0.5h8.6c1.7,0,2.5,0.5,2.5,1.6c0,0.5-0.2,0.9-0.6,1.1
	C219.4,278.2,218.7,278.4,218.1,278.3z"/>
<path class="st5" d="M234.1,292.8v-2.5H226c-0.8,0.1-1.6-0.1-2.3-0.6c-0.5-0.4-0.8-0.9-0.8-1.5c0-0.2,0-0.3,0.1-0.5
	c0.1-0.2,0.2-0.4,0.3-0.5c0.1-0.2,0.3-0.4,0.5-0.5l0.6-0.6l8.6-9.4c0.4-0.5,0.9-0.9,1.4-1.3c0.4-0.3,0.8-0.4,1.3-0.4
	c1.6,0,2.5,0.8,2.5,2.3v10.2h0.7c0.7,0,1.4,0.1,2,0.3c0.5,0.2,0.8,0.7,0.8,1.2c0,0.5-0.2,0.9-0.6,1.1c-0.6,0.3-1.2,0.4-1.9,0.4h-1
	v2.5c0,0.6-0.2,1.1-0.5,1.5c-0.4,0.3-0.9,0.5-1.5,0.5c-0.5,0-1.1-0.2-1.5-0.5C234.3,293.9,234.1,293.3,234.1,292.8z M227.1,287.4h7
	v-7.7L227.1,287.4z"/>
<path class="st5" d="M247.5,294.8c-0.6,0-1.2-0.2-1.7-0.5c-0.5-0.3-0.8-0.9-0.7-1.5c0-0.6,0.3-1.1,0.7-1.4c0.5-0.4,1.1-0.6,1.7-0.6
	c0.6,0,1.3,0.2,1.8,0.6c0.8,0.6,1,1.7,0.4,2.5c-0.1,0.1-0.2,0.3-0.4,0.4C248.7,294.6,248.1,294.8,247.5,294.8z"/>
<path class="st5" d="M264.3,292.8v-2.5h-8.2c-0.8,0.1-1.6-0.1-2.3-0.6c-0.5-0.4-0.8-0.9-0.8-1.5c0-0.2,0-0.3,0.1-0.5
	c0.1-0.2,0.2-0.4,0.3-0.5c0.2-0.2,0.3-0.4,0.5-0.5l0.6-0.6l8.6-9.4c0.4-0.5,0.9-0.9,1.4-1.3c0.4-0.3,0.8-0.4,1.3-0.4
	c1.6,0,2.5,0.8,2.5,2.3v10.2h0.7c0.7,0,1.4,0.1,2,0.3c0.5,0.2,0.8,0.7,0.8,1.2c0,0.5-0.2,0.9-0.6,1.1c-0.6,0.3-1.2,0.4-1.9,0.4h-1
	v2.5c0,0.6-0.2,1.1-0.5,1.5c-0.4,0.3-0.9,0.5-1.5,0.5c-0.5,0-1.1-0.2-1.5-0.5C264.5,293.9,264.3,293.3,264.3,292.8z M257.3,287.4h7
	v-7.7L257.3,287.4z"/>
<path class="st5" d="M281.6,282.8c0.9,0,1.8-0.2,2.6-0.7c0.7-0.4,1.1-1.2,1.1-2.1c0-0.7-0.3-1.3-0.9-1.8c-0.7-0.5-1.5-0.8-2.3-0.7
	c-0.6,0-1.1,0.1-1.6,0.2c-0.4,0.1-0.7,0.3-1,0.6c-0.3,0.3-0.5,0.6-0.7,1c-0.2,0.4-0.4,0.8-0.6,1.1c-0.1,0.2-0.4,0.4-0.6,0.4
	c-0.3,0.1-0.7,0.2-1,0.2c-0.4,0-0.9-0.1-1.2-0.4c-0.4-0.3-0.6-0.7-0.5-1.1c0-0.5,0.2-1,0.5-1.5c0.4-0.6,0.9-1.1,1.5-1.4
	c0.7-0.5,1.6-0.9,2.5-1.1c1.1-0.3,2.2-0.4,3.3-0.4c1,0,1.9,0.1,2.9,0.4c0.8,0.2,1.6,0.5,2.3,1c0.6,0.4,1.1,0.9,1.5,1.5
	c0.3,0.6,0.5,1.2,0.5,1.9c0,0.8-0.2,1.6-0.7,2.3c-0.6,0.7-1.2,1.3-2,1.8c0.8,0.3,1.5,0.8,2.1,1.3c0.5,0.4,1,1,1.3,1.6
	c0.3,0.6,0.4,1.2,0.4,1.9c0,0.8-0.2,1.6-0.6,2.3c-0.4,0.8-1,1.5-1.8,2c-0.8,0.6-1.8,1.1-2.7,1.4c-1.1,0.3-2.3,0.5-3.5,0.5
	c-1.2,0-2.4-0.2-3.5-0.6c-0.9-0.3-1.8-0.8-2.5-1.4c-0.6-0.5-1.1-1.1-1.5-1.8c-0.3-0.5-0.5-1-0.5-1.5c0-0.5,0.2-1,0.6-1.2
	c0.4-0.3,1-0.5,1.5-0.5c0.3,0,0.6,0.1,0.9,0.2c0.2,0.1,0.4,0.3,0.6,0.5c0.4,1,1,2,1.8,2.7c0.8,0.6,1.7,1,2.7,0.9
	c0.7,0,1.3-0.1,1.9-0.4c0.6-0.3,1.1-0.7,1.5-1.2c0.4-0.5,0.6-1.2,0.6-1.8c0.1-0.9-0.3-1.8-1-2.4c-0.8-0.6-1.9-0.9-2.9-0.9
	c-0.2,0-0.5,0-1,0s-0.8,0-0.9,0c-0.5,0-1-0.1-1.4-0.4c-0.3-0.2-0.5-0.6-0.5-1c0-0.4,0.2-0.8,0.6-1c0.5-0.3,1.1-0.4,1.7-0.4
	L281.6,282.8z"/>
<path class="st5" d="M310.5,285c0,1.3-0.1,2.5-0.3,3.7c-0.2,1-0.6,2-1.2,2.8c-0.7,1-1.7,1.9-2.9,2.4c-1.2,0.6-2.6,0.9-3.9,0.9
	c-1.6,0-3.1-0.4-4.4-1.1c-1.3-0.7-2.3-1.8-3-3.1c-0.4-0.8-0.6-1.6-0.7-2.4c-0.2-1-0.2-1.9-0.2-2.9c0-1.2,0.1-2.4,0.3-3.6
	c0.1-0.9,0.4-1.9,0.8-2.8c0.6-1.2,1.6-2.3,2.8-2.9c1.4-0.7,2.9-1,4.4-1c1,0,2,0.1,3,0.5c0.9,0.3,1.7,0.7,2.4,1.3
	c0.7,0.6,1.3,1.3,1.8,2.1C310.1,280.7,310.6,282.8,310.5,285z M306,284.7c0-1.3-0.1-2.7-0.4-4c-0.2-0.9-0.6-1.7-1.2-2.3
	c-0.6-0.6-1.5-0.8-2.3-0.8c-1.3-0.1-2.5,0.6-3,1.8c-0.7,1.7-0.9,3.6-0.8,5.4c0,1.4,0.1,2.7,0.4,4.1c0.2,0.9,0.6,1.7,1.2,2.4
	c1.3,1.1,3.3,1.1,4.6,0c0.6-0.7,1-1.5,1.2-2.4C305.9,287.4,306,286.1,306,284.7L306,284.7z"/>
<path class="st5" d="M337.2,278.1h-9.5v5h7.9c0.6,0,1.2,0.1,1.6,0.4c0.4,0.2,0.6,0.7,0.5,1.1c0,0.4-0.2,0.8-0.6,1.1
	c-0.5,0.3-1.1,0.4-1.6,0.4h-8v6.4c0.1,0.7-0.2,1.3-0.7,1.8c-0.5,0.4-1.1,0.6-1.7,0.6c-0.6,0-1.3-0.2-1.8-0.6
	c-0.5-0.5-0.7-1.1-0.7-1.8v-14.9c0-0.5,0.1-1,0.3-1.4c0.2-0.4,0.6-0.7,1-0.8c0.5-0.2,1.1-0.3,1.7-0.2h11.4c0.6,0,1.2,0.1,1.7,0.4
	c0.6,0.4,0.7,1.3,0.3,1.9c-0.1,0.1-0.2,0.2-0.3,0.3C338.4,278,337.8,278.1,337.2,278.1z"/>
<path class="st5" d="M136,120.1c0,12.5-4.4,24-13.3,34.5c-8.9,10.5-19.5,17.4-31.9,20.7H55.1c-13.6-1.1-26.4-7.1-36-16.8
	c-9.9-9.9-15.6-19.9-17-29.9c-1.2-7.9-1.9-16-2.1-24v-7.3h50.6V113c0.7,7.7,1.8,13.1,3.3,16.3c1.6,3.2,5.7,4.8,12.3,4.8
	c3.3-0.1,6.5-1.4,8.9-3.6c2.7-2.1,4.2-5.2,4.3-8.6V0h56.6L136,120.1z"/>
<polygon class="st2" points="162.1,8.4 215.9,8.4 109.9,189.3 56,189.3 "/>
<g>
	<path class="st5" d="M43.7,253.1c0.6,0.7,1.5,1,2.8,1c1.2,0,2.1-0.2,2.6-0.7s0.9-1,1.2-1.7c0.1-0.3,0.2-0.6,0.4-0.7
		s0.3-0.2,0.7-0.2h4c0.2,0,0.3,0.1,0.5,0.2c0.1,0.1,0.2,0.3,0.2,0.5c0,1.4-0.5,2.6-1.3,3.8c-0.8,1.1-2,2.1-3.4,2.7
		c-1.4,0.7-3,1-4.8,1c-1.9,0-3.5-0.4-4.9-1.1c-1.4-0.7-2.5-1.7-3.3-3c-0.8-1.2-1.2-2.6-1.3-4.2c0-1-0.1-1.8-0.1-2.4
		c0-0.8,0-1.8,0.1-3c0.1-1.5,0.5-2.9,1.2-4.2c0.8-1.2,1.9-2.2,3.3-3c1.4-0.7,3.1-1.1,4.9-1.1c1.7,0,3.3,0.3,4.8,1
		c1.4,0.7,2.6,1.6,3.4,2.7c0.8,1.1,1.3,2.4,1.3,3.8c0,0.2-0.1,0.3-0.2,0.5c-0.1,0.1-0.3,0.2-0.5,0.2h-4c-0.3,0-0.5-0.1-0.7-0.2
		c-0.1-0.1-0.2-0.4-0.4-0.7c-0.2-0.7-0.6-1.2-1.2-1.7c-0.5-0.5-1.4-0.7-2.6-0.7c-1.3,0-2.2,0.3-2.8,1s-0.9,1.5-1,2.6
		c0,0.7-0.1,1.5-0.1,2.6c0,1,0,1.8,0.1,2.6C42.7,251.6,43.1,252.4,43.7,253.1z"/>
	<path class="st5" d="M72.9,238.1c1.4,0.7,2.5,1.7,3.2,3s1.2,2.6,1.3,4.2c0,0.6,0.1,1.5,0.1,2.7c0,1.2,0,2.1-0.1,2.7
		c-0.1,1.5-0.5,2.9-1.3,4.2c-0.8,1.2-1.8,2.2-3.2,3c-1.4,0.7-3.1,1.1-5,1.1s-3.6-0.4-5-1.1c-1.4-0.7-2.5-1.7-3.2-3
		c-0.8-1.2-1.2-2.6-1.3-4.2c0-1.1-0.1-2-0.1-2.7c0-0.7,0-1.6,0.1-2.7c0.1-1.5,0.5-2.9,1.3-4.2s1.8-2.2,3.2-3c1.4-0.7,3.1-1.1,5-1.1
		S71.5,237.4,72.9,238.1z M70.7,242.8c-0.6-0.6-1.6-1-2.8-1s-2.1,0.3-2.8,1c-0.6,0.6-1,1.5-1.1,2.6c-0.1,0.7-0.1,1.5-0.1,2.5
		c0,1,0,1.9,0.1,2.6c0.1,1.1,0.5,1.9,1.1,2.6s1.6,1,2.8,1s2.1-0.3,2.8-1c0.6-0.6,1-1.5,1.1-2.6c0.1-0.7,0.1-1.6,0.1-2.6
		c0-1,0-1.9-0.1-2.5C71.7,244.3,71.3,243.5,70.7,242.8z"/>
	<path class="st5" d="M96.4,239c1.5,1.2,2.3,2.9,2.3,5.2c0,2.9-1.2,5-3.6,6.1l3.8,7.2c0.1,0.1,0.1,0.2,0.1,0.3
		c0,0.2-0.1,0.3-0.2,0.5c-0.1,0.1-0.3,0.2-0.5,0.2h-4.1c-0.4,0-0.6-0.1-0.8-0.2s-0.3-0.3-0.5-0.6l-3.4-6.5h-2.8v6.5
		c0,0.2-0.1,0.4-0.2,0.6s-0.4,0.2-0.6,0.2h-4c-0.2,0-0.4-0.1-0.6-0.2c-0.2-0.2-0.2-0.4-0.2-0.6v-19.7c0-0.2,0.1-0.4,0.2-0.6
		c0.2-0.2,0.4-0.2,0.6-0.2H90C92.8,237.3,94.9,237.9,96.4,239z M90,246.5c2,0,3-0.8,3-2.3c0-1.5-1-2.3-3-2.3h-3.4v4.5H90z"/>
	<path class="st5" d="M117.5,239c1.5,1.2,2.3,2.9,2.3,5.2c0,2.9-1.2,5-3.6,6.1l3.8,7.2c0.1,0.1,0.1,0.2,0.1,0.3
		c0,0.2-0.1,0.3-0.2,0.5c-0.1,0.1-0.3,0.2-0.5,0.2h-4.1c-0.4,0-0.6-0.1-0.8-0.2s-0.3-0.3-0.5-0.6l-3.4-6.5h-2.8v6.5
		c0,0.2-0.1,0.4-0.2,0.6s-0.4,0.2-0.6,0.2h-4c-0.2,0-0.4-0.1-0.6-0.2c-0.2-0.2-0.2-0.4-0.2-0.6v-19.7c0-0.2,0.1-0.4,0.2-0.6
		c0.2-0.2,0.4-0.2,0.6-0.2h8.2C113.9,237.3,116,237.9,117.5,239z M111.2,246.5c2,0,3-0.8,3-2.3c0-1.5-1-2.3-3-2.3h-3.4v4.5H111.2z"
		/>
	<path class="st5" d="M128.9,253.7h9.6c0.2,0,0.4,0.1,0.6,0.2c0.2,0.2,0.2,0.4,0.2,0.6v3.2c0,0.2-0.1,0.4-0.2,0.6
		c-0.2,0.2-0.4,0.2-0.6,0.2h-14.4c-0.2,0-0.4-0.1-0.6-0.2c-0.2-0.2-0.2-0.4-0.2-0.6v-19.7c0-0.2,0.1-0.4,0.2-0.6
		c0.2-0.2,0.4-0.2,0.6-0.2h14.2c0.2,0,0.4,0.1,0.6,0.2s0.2,0.4,0.2,0.6v3.2c0,0.2-0.1,0.4-0.2,0.6c-0.2,0.2-0.4,0.2-0.6,0.2h-9.4
		v3.3h8.7c0.2,0,0.4,0.1,0.6,0.2c0.2,0.2,0.2,0.4,0.2,0.6v3.2c0,0.2-0.1,0.4-0.2,0.6c-0.2,0.2-0.4,0.2-0.6,0.2h-8.7V253.7z"/>
	<path class="st5" d="M158.7,237.5c0.2,0.2,0.2,0.4,0.2,0.6v3.2c0,0.2-0.1,0.4-0.2,0.6c-0.2,0.2-0.4,0.2-0.6,0.2h-5.4v15.6
		c0,0.2-0.1,0.4-0.2,0.6c-0.2,0.2-0.4,0.2-0.6,0.2h-4c-0.2,0-0.4-0.1-0.6-0.2c-0.2-0.2-0.2-0.4-0.2-0.6v-15.6h-5.4
		c-0.2,0-0.4-0.1-0.6-0.2c-0.2-0.2-0.2-0.4-0.2-0.6v-3.2c0-0.2,0.1-0.4,0.2-0.6c0.2-0.2,0.4-0.2,0.6-0.2h16.3
		C158.3,237.3,158.5,237.4,158.7,237.5z"/>
	<path class="st5" d="M175.5,238.1c1.4,0.7,2.5,1.7,3.2,3s1.2,2.6,1.3,4.2c0,0.6,0.1,1.5,0.1,2.7c0,1.2,0,2.1-0.1,2.7
		c-0.1,1.5-0.5,2.9-1.3,4.2c-0.8,1.2-1.8,2.2-3.2,3c-1.4,0.7-3.1,1.1-5,1.1s-3.6-0.4-5-1.1c-1.4-0.7-2.5-1.7-3.2-3
		c-0.8-1.2-1.2-2.6-1.3-4.2c0-1.1-0.1-2-0.1-2.7c0-0.7,0-1.6,0.1-2.7c0.1-1.5,0.5-2.9,1.3-4.2s1.8-2.2,3.2-3c1.4-0.7,3.1-1.1,5-1.1
		S174.1,237.4,175.5,238.1z M173.2,242.8c-0.6-0.6-1.6-1-2.8-1s-2.1,0.3-2.8,1c-0.6,0.6-1,1.5-1.1,2.6c-0.1,0.7-0.1,1.5-0.1,2.5
		c0,1,0,1.9,0.1,2.6c0.1,1.1,0.5,1.9,1.1,2.6s1.6,1,2.8,1s2.1-0.3,2.8-1c0.6-0.6,1-1.5,1.1-2.6c0.1-0.7,0.1-1.6,0.1-2.6
		c0-1,0-1.9-0.1-2.5C174.2,244.3,173.9,243.5,173.2,242.8z"/>
	<path class="st5" d="M198.9,239c1.5,1.2,2.3,2.9,2.3,5.2c0,2.9-1.2,5-3.6,6.1l3.8,7.2c0.1,0.1,0.1,0.2,0.1,0.3
		c0,0.2-0.1,0.3-0.2,0.5c-0.1,0.1-0.3,0.2-0.5,0.2h-4.1c-0.4,0-0.6-0.1-0.8-0.2s-0.3-0.3-0.5-0.6l-3.4-6.5h-2.8v6.5
		c0,0.2-0.1,0.4-0.2,0.6s-0.4,0.2-0.6,0.2h-4c-0.2,0-0.4-0.1-0.6-0.2c-0.2-0.2-0.2-0.4-0.2-0.6v-19.7c0-0.2,0.1-0.4,0.2-0.6
		c0.2-0.2,0.4-0.2,0.6-0.2h8.2C195.3,237.3,197.4,237.9,198.9,239z M192.6,246.5c2,0,3-0.8,3-2.3c0-1.5-1-2.3-3-2.3h-3.4v4.5H192.6z
		"/>
	<path class="st5" d="M229.7,248c0,0.3,0,1-0.1,2.1c-0.1,1.7-0.5,3.1-1.3,4.4c-0.8,1.3-1.9,2.3-3.3,3c-1.4,0.7-3,1.1-4.9,1.1H212
		c-0.2,0-0.4-0.1-0.6-0.2c-0.2-0.2-0.2-0.4-0.2-0.6v-19.7c0-0.2,0.1-0.4,0.2-0.6c0.2-0.2,0.4-0.2,0.6-0.2h8.1c1.8,0,3.5,0.4,4.9,1.1
		c1.4,0.7,2.6,1.7,3.4,3c0.8,1.3,1.3,2.8,1.3,4.4C229.7,246.9,229.7,247.7,229.7,248z M216.8,242.2v11.6h3.3c2.6,0,3.9-1.2,4-3.5
		c0-1.2,0.1-1.9,0.1-2.3c0-0.4,0-1.2-0.1-2.3c-0.1-1.2-0.4-2-1.1-2.6c-0.7-0.6-1.7-0.9-3-0.9H216.8z"/>
	<path class="st5" d="M238.8,253.7h9.6c0.2,0,0.4,0.1,0.6,0.2c0.2,0.2,0.2,0.4,0.2,0.6v3.2c0,0.2-0.1,0.4-0.2,0.6
		c-0.2,0.2-0.4,0.2-0.6,0.2H234c-0.2,0-0.4-0.1-0.6-0.2c-0.2-0.2-0.2-0.4-0.2-0.6v-19.7c0-0.2,0.1-0.4,0.2-0.6
		c0.2-0.2,0.4-0.2,0.6-0.2h14.2c0.2,0,0.4,0.1,0.6,0.2s0.2,0.4,0.2,0.6v3.2c0,0.2-0.1,0.4-0.2,0.6c-0.2,0.2-0.4,0.2-0.6,0.2h-9.4
		v3.3h8.7c0.2,0,0.4,0.1,0.6,0.2c0.2,0.2,0.2,0.4,0.2,0.6v3.2c0,0.2-0.1,0.4-0.2,0.6c-0.2,0.2-0.4,0.2-0.6,0.2h-8.7V253.7z"/>
	<path class="st5" d="M259.4,258.4c-0.2-0.2-0.2-0.4-0.2-0.6v-19.7c0-0.2,0.1-0.4,0.2-0.6c0.2-0.2,0.4-0.2,0.6-0.2h4
		c0.2,0,0.4,0.1,0.6,0.2s0.2,0.4,0.2,0.6v19.7c0,0.2-0.1,0.4-0.2,0.6s-0.4,0.2-0.6,0.2h-4C259.8,258.6,259.6,258.5,259.4,258.4z"/>
	<path class="st5" d="M274.7,247.7v10.1c0,0.2-0.1,0.4-0.2,0.6s-0.4,0.2-0.6,0.2h-4c-0.2,0-0.4-0.1-0.6-0.2
		c-0.2-0.2-0.2-0.4-0.2-0.6v-19.7c0-0.2,0.1-0.4,0.2-0.6c0.2-0.2,0.4-0.2,0.6-0.2h3.5c0.6,0,1,0.3,1.3,0.8l4.9,8.4l4.9-8.4
		c0.3-0.5,0.7-0.8,1.3-0.8h3.5c0.2,0,0.4,0.1,0.6,0.2c0.2,0.2,0.2,0.4,0.2,0.6v19.7c0,0.2-0.1,0.4-0.2,0.6c-0.2,0.2-0.4,0.2-0.6,0.2
		h-4c-0.2,0-0.4-0.1-0.6-0.2c-0.2-0.2-0.2-0.4-0.2-0.6v-10.1l-2.9,5c-0.1,0.2-0.3,0.4-0.5,0.5c-0.2,0.1-0.4,0.2-0.7,0.2h-1.9
		c-0.3,0-0.5-0.1-0.7-0.2c-0.2-0.1-0.3-0.3-0.5-0.5L274.7,247.7z"/>
	<path class="st5" d="M307.6,238.1c1.4,0.7,2.5,1.7,3.2,3s1.2,2.6,1.3,4.2c0,0.6,0.1,1.5,0.1,2.7c0,1.2,0,2.1-0.1,2.7
		c-0.1,1.5-0.5,2.9-1.3,4.2c-0.8,1.2-1.8,2.2-3.2,3c-1.4,0.7-3.1,1.1-5,1.1s-3.6-0.4-5-1.1c-1.4-0.7-2.5-1.7-3.2-3
		c-0.8-1.2-1.2-2.6-1.3-4.2c0-1.1-0.1-2-0.1-2.7c0-0.7,0-1.6,0.1-2.7c0.1-1.5,0.5-2.9,1.3-4.2s1.8-2.2,3.2-3c1.4-0.7,3.1-1.1,5-1.1
		S306.2,237.4,307.6,238.1z M305.3,242.8c-0.6-0.6-1.6-1-2.8-1s-2.1,0.3-2.8,1c-0.6,0.6-1,1.5-1.1,2.6c-0.1,0.7-0.1,1.5-0.1,2.5
		c0,1,0,1.9,0.1,2.6c0.1,1.1,0.5,1.9,1.1,2.6s1.6,1,2.8,1s2.1-0.3,2.8-1c0.6-0.6,1-1.5,1.1-2.6c0.1-0.7,0.1-1.6,0.1-2.6
		c0-1,0-1.9-0.1-2.5C306.3,244.3,306,243.5,305.3,242.8z M303.6,231c0.1-0.1,0.3-0.1,0.6-0.1h4.4c0.2,0,0.3,0.1,0.4,0.2
		s0.2,0.3,0.2,0.4c0,0.1-0.1,0.3-0.2,0.4l-4.1,3.4c-0.2,0.2-0.4,0.3-0.6,0.4c-0.2,0.1-0.4,0.1-0.7,0.1h-3c-0.3,0-0.5-0.2-0.5-0.5
		c0-0.2,0-0.3,0.2-0.4l2.8-3.4C303.2,231.2,303.4,231.1,303.6,231z"/>
	<path class="st5" d="M320.5,257.4l-6.2-19c-0.1-0.2-0.1-0.3-0.1-0.4c0-0.2,0.1-0.3,0.2-0.5s0.3-0.2,0.5-0.2h3.8
		c0.3,0,0.6,0.1,0.8,0.2c0.2,0.2,0.3,0.3,0.4,0.5l4.2,13.4l4.2-13.4c0.1-0.2,0.2-0.4,0.4-0.5c0.2-0.2,0.5-0.2,0.8-0.2h3.8
		c0.2,0,0.3,0.1,0.5,0.2c0.1,0.1,0.2,0.3,0.2,0.5c0,0.1,0,0.2-0.1,0.4l-6.2,19c-0.3,0.8-0.8,1.2-1.6,1.2h-4
		C321.3,258.6,320.8,258.2,320.5,257.4z"/>
	<path class="st5" d="M342.4,253.7h9.6c0.2,0,0.4,0.1,0.6,0.2c0.2,0.2,0.2,0.4,0.2,0.6v3.2c0,0.2-0.1,0.4-0.2,0.6
		c-0.2,0.2-0.4,0.2-0.6,0.2h-14.4c-0.2,0-0.4-0.1-0.6-0.2c-0.2-0.2-0.2-0.4-0.2-0.6v-19.7c0-0.2,0.1-0.4,0.2-0.6
		c0.2-0.2,0.4-0.2,0.6-0.2h14.2c0.2,0,0.4,0.1,0.6,0.2s0.2,0.4,0.2,0.6v3.2c0,0.2-0.1,0.4-0.2,0.6c-0.2,0.2-0.4,0.2-0.6,0.2h-9.4
		v3.3h8.7c0.2,0,0.4,0.1,0.6,0.2c0.2,0.2,0.2,0.4,0.2,0.6v3.2c0,0.2-0.1,0.4-0.2,0.6c-0.2,0.2-0.4,0.2-0.6,0.2h-8.7V253.7z"/>
	<path class="st5" d="M356.6,258.4c-0.2-0.2-0.2-0.4-0.2-0.6v-19.7c0-0.2,0.1-0.4,0.2-0.6c0.2-0.2,0.4-0.2,0.6-0.2h4
		c0.2,0,0.4,0.1,0.6,0.2s0.2,0.4,0.2,0.6v19.7c0,0.2-0.1,0.4-0.2,0.6s-0.4,0.2-0.6,0.2h-4C357,258.6,356.8,258.5,356.6,258.4z"/>
	<path class="st5" d="M382.9,243.5c-0.1,0.1-0.3,0.2-0.4,0.2h-4c-0.3,0-0.5,0-0.7-0.1c-0.2-0.1-0.3-0.2-0.5-0.4c0,0-0.2-0.2-0.4-0.4
		c-0.2-0.2-0.6-0.4-1-0.6s-1-0.3-1.7-0.3c-0.9,0-1.6,0.1-2.1,0.3c-0.6,0.2-0.8,0.6-0.8,1.2c0,0.4,0.2,0.7,0.5,1s0.9,0.4,1.6,0.6
		c0.7,0.2,2,0.5,3.8,0.8c2.3,0.5,4,1.2,5.1,2.2s1.6,2.4,1.6,4.3c0,1.3-0.4,2.5-1.2,3.5c-0.8,1-1.9,1.8-3.3,2.3
		c-1.4,0.5-3,0.8-4.9,0.8c-1.7,0-3.3-0.3-4.7-0.9s-2.5-1.4-3.3-2.4s-1.2-2-1.3-3c0-0.2,0.1-0.3,0.2-0.5s0.3-0.2,0.4-0.2h4
		c0.4,0,0.8,0.1,1.2,0.4c0.1,0.1,0.2,0.2,0.5,0.5s0.7,0.6,1.2,0.8c0.5,0.2,1.2,0.4,1.9,0.4c2.5,0,3.8-0.5,3.8-1.6
		c0-0.3-0.2-0.6-0.5-0.9c-0.4-0.2-0.9-0.4-1.5-0.6c-0.7-0.2-1.7-0.4-3.1-0.7l-1.4-0.3c-2.1-0.4-3.6-1.2-4.6-2.2
		c-1-1-1.5-2.4-1.5-4.2c0-1.2,0.4-2.3,1.1-3.3s1.7-1.8,3-2.4c1.3-0.6,2.8-0.9,4.5-0.9c1.6,0,3.1,0.3,4.5,0.9
		c1.4,0.6,2.4,1.4,3.2,2.3c0.8,0.9,1.2,1.8,1.2,2.7C383.1,243.2,383.1,243.3,382.9,243.5z"/>
</g>
</svg>
